<?xml version="1.0" encoding="UTF-8"?><svg id="Layer_1" xmlns="http://www.w3.org/2000/svg" viewBox="0 0 1572.09 283.44"><defs><style>.cls-1{fill:#fff;}</style></defs><path class="cls-1" d="M290.1,90.84h23.05v-3.16h-47.5c-3.13,0-5.86,1.72-7.3,4.25l-.09.14-69.17,115.44L53.22,0H0v3.16h23.88c3.85,0,7.47,1.95,9.6,5.17l137.45,208.92c-2.07,2.96-3.28,6.58-3.28,10.46,0,10.17,8.22,18.39,18.36,18.39s18.39-8.22,18.39-18.39c0-6.75-3.65-12.64-9.08-15.81l61.93-102.39v158.02s.03.66,0,1.7c-.14,2.99-.98,9.08-5.57,11.32h-8.65v2.87h51.73v-2.87h-8.65c-4.57-2.21-5.4-8.25-5.55-11.24-.03-1.09,0-1.78,0-1.78V104.72s-.03-.69,0-1.78c.17-3.71,1.44-12.1,9.54-12.1ZM201.99,227.72c0,8.82-7.16,15.98-15.98,15.98s-15.95-7.16-15.95-15.98c0-3.02.83-5.83,2.33-8.22,2.76-4.63,7.85-7.73,13.62-7.73.17,0,.34,0,.52.03,2.27.06,4.43.6,6.38,1.55.4.17.8.37,1.18.63,4.74,2.76,7.9,7.87,7.9,13.74Z"/><path class="cls-1" d="M127.3,2.76V0h55.13v2.76h-10.5c-14.55,0-15.16,65.6-15.16,65.6h-3.81s-.61-65.6-15.16-65.6h-10.5Z"/><path class="cls-1" d="M56.31,194.44v2.76s-55.13,0-55.13,0v-2.76s10.5,0,10.5,0c14.55,0,15.16-65.6,15.16-65.6h3.81s.61,65.6,15.16,65.6h10.5Z"/><path class="cls-1" d="M538.93,201.11h-1.81l-76.77-101.49c-10.54-13.17-15.32-12.85-19.6-13.17v-1.32h20.59l77.59,103.79v12.19ZM489.68,199.63v1.48h-45.14v-1.48c22.74,0,22.74-9.23,22.74-38.89h1.64c0,29.16.17,38.89,20.76,38.89ZM561.01,85.12v1.32c-22.73,0-22.08,8.23-22.08,38.88h-1.48c0-30.65,0-38.88-20.59-38.88v-1.32h44.15Z"/><path class="cls-1" d="M584.27,190.56c0,9.07.83,7.58,6.75,9.07v1.48h-21.57v-1.48c6.25-1.82,6.59-.66,6.59-9.07v-54.86c0-5.77-1.15-8.07-8.07-8.07v-1.32l16.31-2.8v67.06ZM578.5,109.18c-3.13,0-5.44-2.47-5.44-5.44,0-3.3,2.31-5.77,5.44-5.77,2.97,0,5.6,2.47,5.6,5.77,0,2.97-2.64,5.44-5.6,5.44Z"/><path class="cls-1" d="M622.33,199.63v1.48h-21.58v-1.48c6.25-1.82,6.59-.66,6.59-9.07v-54.69c0-5.77-1.31-8.24-8.24-8.24v-1.32l16.48-2.8v67.06c0,9.07.83,7.58,6.76,9.07ZM670.43,199.78v1.32h-21.42v-1.32c6.26-1.81,6.59-.82,6.59-9.22v-38.88c0-14.5-6.92-23.72-20.43-23.72-4.95,0-9.07,2.14-12.2,4.78l-1.64-1.49c4.61-4.61,11.04-7.74,17.63-7.74,13.84,0,24.72,7.74,24.72,27.52v39.54c0,9.07.98,7.74,6.75,9.22Z"/><path class="cls-1" d="M745.24,191.88c-.83,4.78-4.28,10.7-11.21,10.7,0,0-11.36.83-11.36-14.33v-29.16c-21.91,5.44-33.28,12.19-33.28,23.72,0,9.55,5.93,14.99,15.32,14.99,4.62,0,8.07-1.31,10.87-3.13.33.83.83,1.65,1.16,2.31-4.11,3.45-10.21,5.59-16.97,5.59,0,0-18.62.17-18.62-17.13,0-14.99,14.01-20.59,41.52-27.85v-8.89c0-15.65-6.43-25.7-19.28-22.08l-.83-1.48c5.6-1.65,10.87-1.65,10.87-1.65,14.34,0,18.12,13.35,18.12,32.95v31.47s0,9.23,6.93,9.23c0,0,4.28,0,5.44-5.77l1.31.5ZM687.25,145.09c-1.48-1.81-1.97-4.28-1.15-6.25.49-1.49,2.64-4.94,7.41-8.73l.82,1.31c-2.31,1.98-2.79,3.46-2.14,3.63,1.49.33,2.8.83,3.96,2.14,2.14,2.47,1.81,6.26-.66,8.57-2.47,2.14-6.1,1.97-8.24-.66Z"/><path class="cls-1" d="M834.06,199.63v1.48h-43.33v-1.48c15.98,0,21.75-1.82,21.75-38.89h1.64c0,38.06,5.93,38.89,19.94,38.89ZM861.24,202.58h-1.32l-47.78-106.26c-6.09-9.4-13.84-9.56-17.63-9.73v-1.48h24.05l46.62,104.78-3.95,12.68ZM919.72,199.63v1.48h-34.59v-1.48c6.92,0,11.86-1.65,11.86-17.14v-97.37h22.08v1.48c-7.09,0-12.68,2.15-12.68,14.5v81.38c0,15.49,6.25,17.14,13.34,17.14Z"/><path class="cls-1" d="M994.38,191.88c-.83,4.78-4.28,10.7-11.21,10.7,0,0-11.36.83-11.36-14.33v-29.16c-21.91,5.44-33.28,12.19-33.28,23.72,0,9.55,5.93,14.99,15.32,14.99,4.62,0,8.07-1.31,10.87-3.13.33.83.83,1.65,1.16,2.31-4.11,3.45-10.21,5.59-16.97,5.59,0,0-18.62.17-18.62-17.13,0-14.99,14.01-20.59,41.52-27.85v-8.89c0-15.65-6.43-25.7-19.28-22.08l-.83-1.48c5.6-1.65,10.87-1.65,10.87-1.65,14.34,0,18.12,13.35,18.12,32.95v31.47s0,9.23,6.93,9.23c0,0,4.28,0,5.44-5.77l1.31.5ZM936.39,145.09c-1.48-1.81-1.97-4.28-1.15-6.25.49-1.49,2.64-4.94,7.41-8.73l.82,1.31c-2.31,1.98-2.79,3.46-2.14,3.63,1.49.33,2.8.83,3.96,2.14,2.14,2.47,1.81,6.26-.66,8.57-2.47,2.14-6.1,1.97-8.24-.66Z"/><path class="cls-1" d="M1015.65,190.56c0,9.07.83,7.58,6.75,9.07v1.48h-21.57v-1.48c6.25-1.82,6.59-.66,6.59-9.07v-54.86c0-5.77-1.31-8.07-8.24-8.07v-1.32l16.48-2.8v67.06ZM1042.5,136.03c-3.13,1.31-6.93-.17-8.4-3.46-.5-1.48-.5-3.13,0-4.61.83-2.14-4.61-.83-10.05,3.45l-1.16-1.31c5.11-4.45,12.03-7.08,17.63-6.43,2.31.33,4.29,1.82,5.44,4.12,1.32,3.3-.17,6.75-3.45,8.24Z"/><path class="cls-1" d="M1074.63,199.63v1.48h-21.57v-1.48c6.25-1.82,6.59-.66,6.59-9.07v-54.69c0-5.77-1.31-8.24-8.24-8.24v-1.32l16.48-2.8v67.06c0,9.07.83,7.58,6.75,9.07ZM1118.62,199.78v1.32h-21.42v-1.32c6.26-1.81,6.59-.82,6.59-9.22v-38.88c0-14.5-4.28-23.72-17.96-23.72-4.94,0-8.73,2.14-11.53,4.78l-1.32-1.49c4.12-4.61,10.05-7.74,16.64-7.74,11.53,0,22.24,4.45,22.24,27.52v39.54c0,9.07.99,7.74,6.76,9.22ZM1162.11,199.78v1.32h-21.42v-1.32c6.26-1.81,6.59-.82,6.59-9.22v-38.88c0-14.5-4.45-23.72-17.96-23.72-4.94,0-8.73,2.14-11.7,4.94-.33-.5-.83-.99-1.31-1.49,4.11-4.78,9.88-7.91,16.63-7.91,14.01,0,22.41,7.74,22.41,27.52v39.54c0,9.07.99,7.74,6.75,9.22Z"/><path class="cls-1" d="M1235.95,191.88c-.83,4.78-4.28,10.7-11.21,10.7,0,0-11.36.83-11.36-14.33v-29.16c-21.91,5.44-33.28,12.19-33.28,23.72,0,9.55,5.93,14.99,15.33,14.99,4.61,0,8.06-1.31,10.87-3.13.33.83.83,1.65,1.16,2.31-4.12,3.45-10.21,5.59-16.97,5.59,0,0-18.62.17-18.62-17.13,0-14.99,14.01-20.59,41.52-27.85v-8.89c0-15.65-6.43-25.7-19.28-22.08l-.83-1.48c5.6-1.65,10.87-1.65,10.87-1.65,14.34,0,18.12,13.35,18.12,32.95v31.47s0,9.23,6.93,9.23c0,0,4.28,0,5.44-5.77l1.31.5ZM1177.96,145.09c-1.48-1.81-1.97-4.28-1.15-6.25.49-1.49,2.64-4.94,7.41-8.73l.82,1.31c-2.31,1.98-2.8,3.46-2.14,3.63,1.49.33,2.8.83,3.96,2.14,2.14,2.47,1.81,6.26-.66,8.57-2.47,2.14-6.1,1.97-8.24-.66Z"/><path class="cls-1" d="M1257.22,190.56c0,9.07.83,7.58,6.75,9.07v1.48h-21.57v-1.48c6.25-1.82,6.59-.66,6.59-9.07v-54.86c0-5.77-1.31-8.07-8.24-8.07v-1.32l16.48-2.8v67.06ZM1284.07,136.03c-3.13,1.31-6.93-.17-8.4-3.46-.5-1.48-.5-3.13,0-4.61.83-2.14-4.61-.83-10.05,3.45l-1.16-1.31c5.11-4.45,12.03-7.08,17.63-6.43,2.31.33,4.29,1.82,5.44,4.12,1.32,3.3-.17,6.75-3.45,8.24Z"/><path class="cls-1" d="M1312.42,190.56c0,9.07.83,7.58,6.75,9.07v1.48h-21.57v-1.48c6.25-1.82,6.59-.66,6.59-9.07v-54.86c0-5.77-1.15-8.07-8.07-8.07v-1.32l16.31-2.8v67.06ZM1306.65,109.18c-3.13,0-5.44-2.47-5.44-5.44,0-3.3,2.31-5.77,5.44-5.77,2.97,0,5.6,2.47,5.6,5.77,0,2.97-2.64,5.44-5.6,5.44Z"/><path class="cls-1" d="M1405.99,198.64v1.31l-11.86,2.48c-4.61.82-4.61-2.97-4.61-2.97v-7.91c-4.94,7.08-14.67,11.03-23.23,11.03-25.54,0-34.28-20.43-34.28-40.36,0-22.74,13.35-36.41,31.8-38.39v1.82c-9.55,2.14-20.92,10.38-20.92,33.44,0,25.7,11.21,39.7,26.52,39.7,10.54,0,20.1-7.58,20.1-19.11v-34.43c0-9.55-6.93-17.46-15.49-19.6v-1.65c6.09.83,11.2,3.3,15.49,6.59v-36.9c0-5.77-1.65-8.57-8.4-8.57v-1.48l16.48-2.8v110.38c0,8.07,1.81,8.07,8.39,7.41Z"/><path class="cls-1" d="M1446.04,200.61v1.65c-21.57-2.31-31.63-19.11-31.63-39.22s10.06-37.07,31.63-39.37v1.65c-11.69,2.14-22.24,11.69-22.24,37.72s10.54,35.59,22.24,37.56ZM1456.26,202.26v-1.65c11.53-1.97,22.07-11.53,22.07-37.56s-10.54-35.58-22.07-37.72v-1.65c21.57,2.31,31.63,19.11,31.63,39.37s-10.06,36.9-31.63,39.22Z"/><path class="cls-1" d="M1549.69,196c-3.79,3.63-8.9,6.59-15.82,6.59-10.71,0-26.2-3.29-26.2-24.54v-38.88q0-11.37-9.22-11.37v-1.32l17.13-2.97v54.04c0,15.65,10.54,20.76,20.1,20.76,5.27,0,9.72-1.15,12.85-3.63l1.16,1.32ZM1572.09,198.97v1.31l-13.18,2.15c-3.63.82-3.46-1.82-3.46-1.82v-62.6c0-10.05,0-10.21-7.74-10.21v-1.32l15.98-2.97v65.25c0,7.91,1.49,9.39,8.4,10.21Z"/></svg>