<?xml version="1.0" encoding="UTF-8"?><svg id="Layer_1" xmlns="http://www.w3.org/2000/svg" viewBox="0 0 1920 1080"><defs><style>.cls-1{fill:#f1f3f5;}.cls-2{fill:#0c0c0d;}</style></defs><rect class="cls-1" width="1920" height="1080"/><polygon class="cls-2" points="163.06 578.05 195.03 604.91 195.03 495.25 219.32 516.99 219.32 473.84 163.06 426.52 163.06 578.05"/><polygon class="cls-2" points="239.78 450.5 239.78 629.52 320.93 697.29 390.35 637.83 367.66 613.54 320.93 652.21 273.03 610.66 272.94 465.33 320.93 424.02 365.1 462.01 390.35 440.59 320.93 382.71 239.78 450.5"/><polygon class="cls-2" points="447.78 602.35 478.59 576.13 478.59 426.52 323.22 559.22 318.61 559.22 292.53 536.49 292.53 578.37 319.46 602.35 322.26 602.35 447.78 495.24 447.78 602.35"/><path class="cls-2" d="M609.21,521.76v35.94h34.54v-12.2l12.74,2.7v6.8c0,10.68-3.35,13.38-13.6,13.38h-32.81c-10.25,0-13.6-2.7-13.6-13.38v-30c0-10.68,3.35-13.38,13.6-13.38h32.81c10.25,0,13.6,2.7,13.6,13.38v5.4l-12.74,2.05v-10.68h-34.54Z"/><path class="cls-2" d="M680.65,511.62h46.95c8.53,0,12.41,2.91,12.41,11.01v13.27c0,8.09-3.89,11.01-12.41,11.01h-7.23l24.39,21.48h-16.3l-23.42-21.48h-11.87v21.48h-12.52v-56.77ZM693.17,521.33v15.87h28.71c3.99,0,5.72-.65,5.72-4.43v-6.91c0-3.78-1.73-4.53-5.72-4.53h-28.71Z"/><path class="cls-2" d="M763.75,511.62h56.12v9.6h-43.39v12.74h25.36v9.61h-25.36v14.14h43.93v10.68h-56.66v-56.77Z"/><path class="cls-2" d="M861.74,511.62h13.06l31.41,56.77h-14.36l-6.58-12.41h-34.75l-6.37,12.41h-13.49l31.08-56.77ZM879.98,545.72l-11.76-23.09-12.2,23.09h23.96Z"/><path class="cls-2" d="M947.11,568.38h-12.74v-46.62h-25.15v-10.14h63.25v10.14h-25.36v46.62Z"/><path class="cls-2" d="M985.96,511.62h12.74v56.77h-12.74v-56.77Z"/><path class="cls-2" d="M1011.42,511.62h14.57l22.23,41.01,21.16-41.01h12.74l-30.22,56.77h-8.85l-31.62-56.77Z"/><path class="cls-2" d="M1094.85,511.62h56.12v9.6h-43.39v12.74h25.36v9.61h-25.36v14.14h43.93v10.68h-56.66v-56.77Z"/><path class="cls-2" d="M1210.54,511.62h12.85l23.74,33.02,23.31-33.02h13.06v56.77h-11.76v-35.08c0-1.19.11-3.13.43-6.04-1.19,2.48-2.27,4.53-3.24,5.94l-20.61,28.38h-2.59l-20.61-28.49c-1.3-1.84-2.37-3.67-3.24-5.83.22,2.27.32,4.21.32,6.04v35.08h-11.66v-56.77Z"/><path class="cls-2" d="M1328.06,511.62h13.06l31.41,56.77h-14.36l-6.58-12.41h-34.75l-6.37,12.41h-13.49l31.08-56.77ZM1346.3,545.72l-11.76-23.09-12.2,23.09h23.96Z"/><path class="cls-2" d="M1399.51,521.44v12.3h34.32c10.25,0,13.71,2.7,13.71,13.38v7.88c0,10.68-3.45,13.38-13.71,13.38h-34c-10.25,0-13.71-2.7-13.71-13.38v-1.62l11.33-2.37v6.69h38.75v-12.95h-34.21c-10.36,0-13.6-2.81-13.6-13.49v-6.26c0-10.68,3.24-13.38,13.6-13.38h31.19c9.82,0,13.6,2.48,13.6,12.41v1.19l-11.33,2.81v-6.58h-35.94Z"/><path class="cls-2" d="M1497.28,568.38h-12.74v-46.62h-25.15v-10.14h63.25v10.14h-25.36v46.62Z"/><path class="cls-2" d="M1536.13,511.62h56.12v9.6h-43.39v12.74h25.36v9.61h-25.36v14.14h43.93v10.68h-56.66v-56.77Z"/><path class="cls-2" d="M1614.27,511.62h46.95c8.53,0,12.41,2.91,12.41,11.01v13.27c0,8.09-3.88,11.01-12.41,11.01h-7.23l24.39,21.48h-16.3l-23.42-21.48h-11.87v21.48h-12.52v-56.77ZM1626.79,521.33v15.87h28.71c3.99,0,5.72-.65,5.72-4.43v-6.91c0-3.78-1.73-4.53-5.72-4.53h-28.71Z"/><path class="cls-2" d="M1708.91,521.44v12.3h34.32c10.25,0,13.71,2.7,13.71,13.38v7.88c0,10.68-3.45,13.38-13.71,13.38h-34c-10.25,0-13.71-2.7-13.71-13.38v-1.62l11.33-2.37v6.69h38.75v-12.95h-34.21c-10.36,0-13.6-2.81-13.6-13.49v-6.26c0-10.68,3.24-13.38,13.6-13.38h31.19c9.82,0,13.6,2.48,13.6,12.41v1.19l-11.33,2.81v-6.58h-35.94Z"/></svg>