<?xml version="1.0" encoding="UTF-8"?><svg id="Layer_1" xmlns="http://www.w3.org/2000/svg" viewBox="0 0 1920 1080"><defs><style>.cls-1{fill:#f1f3f5;}.cls-2{fill:#0c0c0d;}</style></defs><rect class="cls-1" width="1920" height="1080"/><rect class="cls-2" x="261.15" y="532.76" width="70.76" height="14.48"/><rect class="cls-2" x="369.25" y="435.04" width="14.48" height="209.93"/><polygon class="cls-2" points="226.77 498.38 331.91 498.38 331.91 483.9 212.29 483.9 212.29 596.1 331.91 596.1 331.91 581.61 226.77 581.61 226.77 498.38"/><polygon class="cls-2" points="177.91 449.52 331.91 449.52 331.91 435.04 163.43 435.04 163.43 644.95 331.91 644.95 331.91 630.47 177.91 630.47 177.91 449.52"/><path class="cls-2" d="M462.1,534.68v-89h85.72v11.9h-70.89v24.84h43.29v11.73h-43.29v28.29h71.58v12.25h-86.41Z"/><path class="cls-2" d="M667.53,482.76c0,12.42-5.69,17.25-18.8,17.25h-56.92v34.67h-14.83v-89h71.75c13.11,0,18.8,4.83,18.8,17.25v19.84ZM652.53,466.55c0-7.42-2.93-9.31-9.66-9.31h-51.05v31.05h51.05c6.73,0,9.66-1.73,9.66-9.32v-12.42Z"/><path class="cls-2" d="M786.73,513.64c0,16.56-4.66,21.04-20.7,21.04h-51.92c-15.87,0-20.87-4.48-20.87-21.04v-2.42l13.8-3.28v14.31h66.23v-26.73h-55.88c-15.87,0-20.7-4.48-20.7-21.04v-7.76c0-16.56,4.83-21.04,20.7-21.04h47.43c14.66,0,20.87,4.14,20.87,19.49v1.9l-12.76,3.62v-12.94h-62.96v24.84h56.06c16.21,0,20.7,5,20.7,21.04v10Z"/><path class="cls-2" d="M824.87,534.68v-89h14.83v89h-14.83Z"/><path class="cls-2" d="M879.04,534.68v-89h14.83v76.58h67.44v12.42h-82.27Z"/><path class="cls-2" d="M1086.72,513.64c0,16.56-4.66,21.04-20.7,21.04h-61.58c-15.87,0-20.87-4.48-20.87-21.04v-46.92c0-16.56,5.01-21.04,20.87-21.04h61.58c16.04,0,20.7,4.48,20.7,21.04v46.92ZM1072.06,457.75h-73.65v64.51h73.65v-64.51Z"/><path class="cls-2" d="M1215.07,534.68l-68.48-61.92c-2.59-2.59-6.04-5-8.97-10,.86,6.73,1.03,12.76,1.03,19.49v52.43h-13.62v-89h9.31l66.58,59.51c3.11,2.76,6.55,6.55,10.18,11.21-1.38-8.28-1.38-15.52-1.38-21.91v-48.81h13.63v89h-8.28Z"/><path class="cls-2" d="M1354.81,457.75v76.93h-14.83v-76.93h-40.71v-12.07h96.42v12.07h-40.88Z"/><path class="cls-2" d="M1413.81,534.68v-89h85.72v11.9h-70.89v24.84h43.29v11.73h-43.29v28.29h71.58v12.25h-86.41Z"/><path class="cls-2" d="M1608.91,534.68l-11.39-21.91h-60.2l-11.38,21.91h-14.66l48.64-89h15.87l49.5,89h-16.38ZM1567.51,455.85l-23.97,45.54h47.95l-23.98-45.54Z"/><path class="cls-2" d="M1742.94,534.68v-60.02c0-2.07.17-6.38.69-13.11-2.24,4.66-3.96,7.76-5.35,9.66l-33.98,49.5h-3.79l-35.36-48.12c-1.9-2.59-4.14-5.52-6.03-11.04.69,5.35.69,9.66.69,13.11v60.02h-12.59v-89h12.07l43.29,57.95,40.36-57.95h13.63v89h-13.63Z"/><path class="cls-2" d="M467,633.3h-4.74v-49.61h14.59c10.73,0,16.56,6.35,16.56,14.96s-5.83,14.88-16.56,14.88h-9.85v19.77ZM476.56,609.29c8.1,0,11.89-4.23,11.89-10.65s-3.87-10.73-11.89-10.73h-9.56v21.38h9.56Z"/><path class="cls-2" d="M518.31,633.3h-4.74v-49.61h14.81c10.72,0,16.56,6.42,16.56,14.81,0,6.71-3.79,11.96-10.72,13.79l13.06,21.01h-5.32l-12.55-20.28h-11.09v20.28ZM528.09,608.86c8.1,0,11.89-4.01,11.89-10.36s-3.87-10.58-11.89-10.58h-9.78v20.94h9.78Z"/><path class="cls-2" d="M566.7,583.69h29.91v4.23h-25.17v18.31h22.47v4.16h-22.47v18.68h26.19v4.23h-30.93v-49.61Z"/><path class="cls-2" d="M618.6,582.67h.29l23.35,28.89,23.2-28.89h.36v50.63h-4.52v-38.96l-19.04,23.93h-.29l-18.83-23.93v38.96h-4.52v-50.63Z"/><path class="cls-2" d="M689.68,583.69h4.81v49.61h-4.81v-49.61Z"/><path class="cls-2" d="M718,616.45v-32.76h4.74v32.39c0,8.97,5.03,13.5,12.77,13.5s12.77-4.52,12.77-13.5v-32.39h4.74v32.76c0,11.53-7.51,17.44-17.51,17.44s-17.51-5.91-17.51-17.44Z"/><path class="cls-2" d="M776.24,582.67h.29l23.35,28.89,23.2-28.89h.36v50.63h-4.52v-38.96l-19.04,23.93h-.29l-18.83-23.93v38.96h-4.52v-50.63Z"/><path class="cls-2" d="M875.93,633.3h-4.74v-49.61h14.81c10.72,0,16.56,6.42,16.56,14.81,0,6.71-3.79,11.96-10.72,13.79l13.06,21.01h-5.32l-12.55-20.28h-11.09v20.28ZM885.71,608.86c8.1,0,11.89-4.01,11.89-10.36s-3.87-10.58-11.89-10.58h-9.78v20.94h9.78Z"/><path class="cls-2" d="M924.32,583.69h29.91v4.23h-25.17v18.31h22.47v4.16h-22.47v18.68h26.19v4.23h-30.93v-49.61Z"/><path class="cls-2" d="M1004.23,621.04h-22.47l-4.89,12.26h-4.81l20.87-50.78h.36l20.94,50.78h-5.03l-4.96-12.26ZM983.51,616.81h18.97l-9.48-23.57-9.48,23.57Z"/><path class="cls-2" d="M1033.65,583.69h4.74v45.38h23.06v4.23h-27.8v-49.61Z"/><path class="cls-2" d="M1105.32,583.69h29.91v4.23h-25.17v18.31h22.47v4.16h-22.47v18.68h26.19v4.23h-30.93v-49.61Z"/><path class="cls-2" d="M1157.79,621.77c2.63,4.96,7.15,7.81,12.99,7.81,6.78,0,10.8-3.35,10.8-8.54,0-5.47-3.35-7.88-9.34-10.65l-4.01-1.9c-7.15-3.35-11.52-6.64-11.52-13.57s5.54-11.82,12.98-11.82c6.42,0,10.65,2.33,13.72,7.3l-3.65,2.33c-2.19-3.72-5.4-5.47-9.99-5.47-5.03,0-8.39,3.14-8.39,7.51,0,4.74,2.7,6.57,8.75,9.41l3.94,1.9c7.95,3.72,12.26,7.37,12.26,14.81,0,8.17-6.2,12.99-15.47,12.99-8.1,0-13.86-3.94-17.07-10l4.01-2.12Z"/><path class="cls-2" d="M1216.03,587.92h-15.39v-4.23h35.46v4.23h-15.32v45.38h-4.74v-45.38Z"/><path class="cls-2" d="M1276.97,621.04h-22.47l-4.89,12.26h-4.81l20.87-50.78h.36l20.94,50.78h-5.03l-4.96-12.26ZM1256.25,616.81h18.97l-9.48-23.57-9.48,23.57Z"/><path class="cls-2" d="M1311.06,587.92h-15.39v-4.23h35.46v4.23h-15.32v45.38h-4.74v-45.38Z"/><path class="cls-2" d="M1350.19,583.69h29.91v4.23h-25.17v18.31h22.47v4.16h-22.47v18.68h26.19v4.23h-30.93v-49.61Z"/><path class="cls-2" d="M1454.25,621.04h-22.47l-4.89,12.26h-4.81l20.87-50.78h.36l20.94,50.78h-5.03l-4.96-12.26ZM1433.53,616.81h18.97l-9.48-23.57-9.48,23.57Z"/><path class="cls-2" d="M1477.11,608.49c0-14.66,11.23-25.39,25.17-25.39,8.68,0,14.44,3.06,18.68,7.73l-3.36,3.14c-3.43-3.79-7.8-6.57-15.46-6.57-11.53,0-20.07,9.05-20.07,21.08s8.68,21.08,20.94,21.08c7.29,0,11.89-2.11,15.1-4.81v-11.38h-14.96v-4.23h19.48v17.8c-4.52,4.01-10.28,6.93-19.62,6.93-14.59,0-25.9-10.65-25.9-25.39Z"/><path class="cls-2" d="M1543.96,583.69h29.91v4.23h-25.17v18.31h22.47v4.16h-22.47v18.68h26.19v4.23h-30.93v-49.61Z"/><path class="cls-2" d="M1600.3,594.27v39.03h-4.45v-50.63h.44l33.42,40.05v-39.03h4.45v50.63h-.44l-33.42-40.05Z"/><path class="cls-2" d="M1654.45,608.49c0-14.74,11.02-25.39,25.1-25.39,8.39,0,15.03,3.43,19.48,9.27l-3.65,2.63c-3.72-4.82-8.97-7.59-15.9-7.59-11.53,0-20.07,9.05-20.07,21.08s8.68,21.08,20.43,21.08c7.15,0,12.91-2.99,16.85-8.24l3.72,2.63c-4.89,6.42-11.82,9.92-20.72,9.92-14.22,0-25.32-10.65-25.24-25.39Z"/><path class="cls-2" d="M1713.07,583.69h5.32l14.45,24.95,14.44-24.95h5.11l-17.15,29.7v19.92h-4.81v-19.84l-17.36-29.77Z"/></svg>