<?xml version="1.0" encoding="UTF-8"?><svg id="Layer_1" xmlns="http://www.w3.org/2000/svg" viewBox="0 0 1920 1080"><defs><style>.cls-1{fill:#f1f3f5;}.cls-2{fill:#0c0c0d;}</style></defs><rect class="cls-1" width="1920" height="1080"/><path class="cls-2" d="M163.06,459.74h80.42v15.71h-64.38v50.3h64.38v15.71h-64.38v78.78h-16.04v-160.51Z"/><path class="cls-2" d="M311.06,459.74h16.04v160.51h-16.04v-160.51Z"/><path class="cls-2" d="M478.21,455.71c24.31,0,44.66,8.11,61.03,24.33,16.38,16.22,24.57,36.19,24.57,59.91s-8.17,43.43-24.51,59.8c-16.34,16.37-36.27,24.55-59.78,24.55s-43.89-8.15-60.27-24.44c-16.38-16.29-24.57-36.01-24.57-59.14,0-15.42,3.73-29.72,11.19-42.88,7.46-13.17,17.63-23.48,30.51-30.94,12.88-7.46,26.82-11.18,41.82-11.18ZM478.92,471.31c-11.88,0-23.14,3.09-33.77,9.28-10.64,6.19-18.94,14.52-24.92,25.01s-8.96,22.17-8.96,35.05c0,19.08,6.61,35.18,19.84,48.32,13.22,13.14,29.16,19.71,47.82,19.71,12.46,0,23.99-3.02,34.59-9.06,10.6-6.04,18.87-14.3,24.81-24.79,5.94-10.48,8.91-22.13,8.91-34.95s-2.97-24.26-8.91-34.56c-5.94-10.3-14.3-18.55-25.08-24.73-10.78-6.19-22.22-9.28-34.32-9.28Z"/><path class="cls-2" d="M631.39,459.74h31.97c17.82,0,29.9.73,36.22,2.19,9.53,2.19,17.28,6.87,23.24,14.04,5.96,7.17,8.95,16.01,8.95,26.49,0,8.74-2.06,16.43-6.16,23.05-4.11,6.63-9.98,11.64-17.62,15.02-7.64,3.39-18.19,5.12-31.64,5.19l57.72,74.53h-19.84l-57.73-74.53h-9.07v74.53h-16.04v-160.51ZM647.43,475.46v54.56l27.65.22c10.71,0,18.63-1.02,23.77-3.06,5.14-2.04,9.15-5.29,12.02-9.77,2.88-4.48,4.32-9.47,4.32-15.01s-1.46-10.27-4.37-14.68c-2.92-4.4-6.74-7.55-11.48-9.44-4.74-1.89-12.61-2.84-23.61-2.84h-28.31Z"/><path class="cls-2" d="M801.65,459.74h91.99v15.71h-75.95v50.3h75.29v15.71h-75.29v63.07h75.29v15.71h-91.33v-160.51Z"/><path class="cls-2" d="M961.22,620.25v-160.51h3.49l106.82,123.04v-123.04h15.82v160.51h-3.6l-105.95-121.54v121.54h-16.59Z"/><path class="cls-2" d="M1154.94,475.46v-15.71h87.95v15.71h-35.79v144.8h-16.37v-144.8h-35.79Z"/><path class="cls-2" d="M1310.47,459.74h16.04v160.51h-16.04v-160.51Z"/><path class="cls-2" d="M1394.09,620.25v-160.51h3.49l106.82,123.04v-123.04h15.82v160.51h-3.6l-105.95-121.54v121.54h-16.59Z"/><path class="cls-2" d="M1671.34,455.71c24.31,0,44.66,8.11,61.03,24.33,16.38,16.22,24.57,36.19,24.57,59.91s-8.17,43.43-24.51,59.8c-16.34,16.37-36.27,24.55-59.78,24.55s-43.89-8.15-60.27-24.44c-16.38-16.29-24.57-36.01-24.57-59.14,0-15.42,3.73-29.72,11.19-42.88,7.46-13.17,17.63-23.48,30.51-30.94,12.88-7.46,26.82-11.18,41.82-11.18ZM1672.05,471.31c-11.88,0-23.14,3.09-33.77,9.28-10.64,6.19-18.94,14.52-24.92,25.01-5.97,10.48-8.96,22.17-8.96,35.05,0,19.08,6.61,35.18,19.84,48.32,13.22,13.14,29.16,19.71,47.82,19.71,12.46,0,23.99-3.02,34.59-9.06,10.6-6.04,18.87-14.3,24.81-24.79,5.94-10.48,8.91-22.13,8.91-34.95s-2.97-24.26-8.91-34.56c-5.94-10.3-14.3-18.55-25.08-24.73s-22.22-9.28-34.32-9.28Z"/></svg>