<?xml version="1.0" encoding="UTF-8"?><svg id="Layer_1" xmlns="http://www.w3.org/2000/svg" viewBox="0 0 512 512"><defs><style>.cls-1{fill:#eccbb7;}.cls-2{fill:#fff;}</style></defs><rect class="cls-1" x="0" width="512" height="512"/><path class="cls-2" d="M467.47,175.43h36.5v-5.01h-75.23c-4.96,0-9.28,2.73-11.56,6.74l-.14.23-109.54,182.82L92.32,31.57H8.04v5.01h37.82c6.1,0,11.83,3.09,15.2,8.19l217.68,330.86c-3.28,4.69-5.19,10.42-5.19,16.57,0,16.11,13.02,29.13,29.08,29.13s29.13-13.02,29.13-29.13c0-10.69-5.78-20.02-14.38-25.03l98.08-162.15v250.26s.05,1.05,0,2.68c-.23,4.73-1.55,14.38-8.83,17.93h-13.7v4.55h81.92v-4.55h-13.7c-7.24-3.5-8.56-13.06-8.78-17.79-.05-1.73,0-2.82,0-2.82V197.41s-.05-1.09,0-2.82c.27-5.87,2.28-19.16,15.11-19.16ZM327.93,392.19c0,13.97-11.33,25.3-25.3,25.3s-25.26-11.33-25.26-25.3c0-4.78,1.32-9.24,3.69-13.02,4.37-7.33,12.42-12.24,21.57-12.24.27,0,.55,0,.82.05,3.6.09,7.01.96,10.1,2.46.64.27,1.27.59,1.87,1,7.51,4.37,12.52,12.47,12.52,21.75Z"/><path class="cls-2" d="M209.65,35.94v-4.37h87.31v4.37h-16.64c-23.04,0-24.01,103.89-24.01,103.89h-6.03s-.96-103.89-24.01-103.89h-16.64Z"/><path class="cls-2" d="M97.21,339.5v4.37s-87.31,0-87.31,0v-4.37s16.64,0,16.64,0c23.04,0,24.01-103.89,24.01-103.89h6.03s.96,103.89,24.01,103.89h16.64Z"/></svg>